<svg width="66" height="66" viewBox="0 0 66 66" fill="none" xmlns="http://www.w3.org/2000/svg">
<g filter="url(#filter0_d_0_1)">
<rect x="11" y="11" width="36" height="36" rx="4" fill="white"/>
<rect x="11" y="11" width="36" height="36" rx="4" stroke="#F2B304"/>
</g>
<g clip-path="url(#clip0_0_1)">
<path d="M36.95 38C34.8667 38 32.8083 37.546 30.775 36.638C28.7417 35.73 26.8917 34.4423 25.225 32.775C23.5583 31.1083 22.271 29.2583 21.363 27.225C20.455 25.1917 20.0007 23.1333 20 21.05C20 20.75 20.1 20.5 20.3 20.3C20.5 20.1 20.75 20 21.05 20H25.1C25.3333 20 25.5417 20.0793 25.725 20.238C25.9083 20.3967 26.0167 20.584 26.05 20.8L26.7 24.3C26.7333 24.5667 26.725 24.7917 26.675 24.975C26.625 25.1583 26.5333 25.3167 26.4 25.45L23.975 27.9C24.3083 28.5167 24.704 29.1123 25.162 29.687C25.62 30.2617 26.1243 30.816 26.675 31.35C27.1917 31.8667 27.7333 32.346 28.3 32.788C28.8667 33.23 29.4667 33.634 30.1 34L32.45 31.65C32.6 31.5 32.796 31.3877 33.038 31.313C33.28 31.2383 33.5173 31.2173 33.75 31.25L37.2 31.95C37.4333 32.0167 37.625 32.1377 37.775 32.313C37.925 32.4883 38 32.684 38 32.9V36.95C38 37.25 37.9 37.5 37.7 37.7C37.5 37.9 37.25 38 36.95 38Z" fill="#FFBB00"/>
</g>
<defs>
<filter id="filter0_d_0_1" x="0.5" y="0.5" width="65" height="65" filterUnits="userSpaceOnUse" color-interpolation-filters="sRGB">
<feFlood flood-opacity="0" result="BackgroundImageFix"/>
<feColorMatrix in="SourceAlpha" type="matrix" values="0 0 0 0 0 0 0 0 0 0 0 0 0 0 0 0 0 0 127 0" result="hardAlpha"/>
<feOffset dx="4" dy="4"/>
<feGaussianBlur stdDeviation="7"/>
<feComposite in2="hardAlpha" operator="out"/>
<feColorMatrix type="matrix" values="0 0 0 0 0 0 0 0 0 0 0 0 0 0 0 0 0 0 0.06 0"/>
<feBlend mode="normal" in2="BackgroundImageFix" result="effect1_dropShadow_0_1"/>
<feBlend mode="normal" in="SourceGraphic" in2="effect1_dropShadow_0_1" result="shape"/>
</filter>
<clipPath id="clip0_0_1">
<rect width="24" height="24" fill="white" transform="translate(17 17)"/>
</clipPath>
</defs>
</svg>
